<mxfile host="Electron" modified="2023-07-21T18:57:21.665Z" agent="Mozilla/5.0 (Windows NT 10.0; Win64; x64) AppleWebKit/537.36 (KHTML, like Gecko) draw.io/21.6.1 Chrome/112.0.5615.204 Electron/24.6.1 Safari/537.36" etag="Pm9tPyHGLjJdv2tE1YJr" version="21.6.1" type="device">
  <diagram name="Page-1" id="h_yBb2WiYMxBjt_rgD_s">
    <mxGraphModel dx="2026" dy="1183" grid="1" gridSize="10" guides="1" tooltips="1" connect="1" arrows="1" fold="1" page="1" pageScale="1" pageWidth="850" pageHeight="1100" math="0" shadow="0">
      <root>
        <mxCell id="0" />
        <mxCell id="1" parent="0" />
        <mxCell id="5iEDhMFKrE1mKd4etGFo-1" value="" style="rounded=0;whiteSpace=wrap;html=1;" parent="1" vertex="1">
          <mxGeometry x="110" y="480" width="760" height="420" as="geometry" />
        </mxCell>
        <mxCell id="PwPabdNTKVrFm3s9vTg0-6" value="Resources" style="rounded=0;whiteSpace=wrap;html=1;fillColor=#eeeeee;strokeColor=#36393d;fontFamily=Verdana;fontSize=18;fontStyle=0" parent="1" vertex="1">
          <mxGeometry x="130" y="820" width="720" height="60" as="geometry" />
        </mxCell>
        <mxCell id="5iEDhMFKrE1mKd4etGFo-10" value="UI / Input Device" style="rounded=0;whiteSpace=wrap;html=1;fillColor=#cdeb8b;strokeColor=#36393d;fontFamily=Verdana;fontSize=18;fontStyle=0" parent="1" vertex="1">
          <mxGeometry x="130" y="500" width="720" height="60" as="geometry" />
        </mxCell>
        <mxCell id="5iEDhMFKrE1mKd4etGFo-12" value="Engine Component" style="rounded=0;whiteSpace=wrap;html=1;fillColor=#bac8d3;strokeColor=#23445d;fontFamily=Verdana;fontSize=18;fontStyle=0" parent="1" vertex="1">
          <mxGeometry x="130" y="660" width="350" height="60" as="geometry" />
        </mxCell>
        <mxCell id="5iEDhMFKrE1mKd4etGFo-14" value="GameDataStorage" style="rounded=0;whiteSpace=wrap;html=1;fillColor=#d0cee2;strokeColor=#56517e;fontFamily=Verdana;fontSize=18;fontStyle=0" parent="1" vertex="1">
          <mxGeometry x="130" y="740" width="720" height="60" as="geometry" />
        </mxCell>
        <mxCell id="RUDRLNCw3qYjvUpAcXgR-2" value="ViewController" style="rounded=0;whiteSpace=wrap;html=1;fillColor=#f8cecc;strokeColor=#b85450;fontFamily=Verdana;fontSize=18;fontStyle=0" parent="1" vertex="1">
          <mxGeometry x="130" y="580" width="720" height="60" as="geometry" />
        </mxCell>
        <mxCell id="RUDRLNCw3qYjvUpAcXgR-3" value="Model" style="rounded=0;whiteSpace=wrap;html=1;fillColor=#b0e3e6;strokeColor=#0e8088;fontSize=18;fontFamily=Verdana;fontStyle=0;strokeWidth=1;" parent="1" vertex="1">
          <mxGeometry x="500" y="660" width="350" height="60" as="geometry" />
        </mxCell>
      </root>
    </mxGraphModel>
  </diagram>
</mxfile>
